# xmcd
#
# Track frame offsets: 
#        150
#        14073
#        26755
#        36786
#        50624
#
# Disc length: 934 seconds
#
# Revision: 1
# Processed by: cddbd v1.5.2PL0 Copyright (c) Steve Scherf et al.
# Submitted via: ExactAudioCopy v0.95b4
#
DISCID=3e03a405
DTITLE=Patetico - Prolog
DYEAR=2004
DGENRE=Jazz
TTITLE0=Vedno, ko sem s tabo
TTITLE1=Vse najboljse, draga mama
TTITLE2=Cigancica
TTITLE3=Otozna
TTITLE4=Vse, kar si zelim v tem trenutku
EXTD=YEAR: 2004
EXTT0=
EXTT1=
EXTT2=
EXTT3=
EXTT4=
PLAYORDER=
